<svg width="80" height="80" viewBox="0 0 80 80" xmlns="http://www.w3.org/2000/svg">
  <!-- Background circle -->
  <circle cx="40" cy="40" r="40" fill="#e8f4fd"/>
  
  <!-- Face -->
  <circle cx="40" cy="35" r="18" fill="#fdbcb4"/>
  
  <!-- Hair -->
  <path d="M22 28 C22 18, 32 15, 40 15 C48 15, 58 18, 58 28 C58 25, 55 22, 50 22 C45 22, 35 22, 30 22 C25 22, 22 25, 22 28 Z" fill="#8b4513"/>
  
  <!-- Eyes -->
  <circle cx="34" cy="32" r="2" fill="#333"/>
  <circle cx="46" cy="32" r="2" fill="#333"/>
  <circle cx="34.5" cy="31.5" r="0.5" fill="#fff"/>
  <circle cx="46.5" cy="31.5" r="0.5" fill="#fff"/>
  
  <!-- Nose -->
  <ellipse cx="40" cy="36" rx="1" ry="1.5" fill="#f4a688"/>
  
  <!-- Mouth -->
  <path d="M36 40 Q40 43 44 40" stroke="#333" stroke-width="1.5" fill="none" stroke-linecap="round"/>
  
  <!-- Body -->
  <rect x="28" y="50" width="24" height="25" rx="3" fill="#4a90e2"/>
  
  <!-- Arms -->
  <rect x="20" y="52" width="8" height="18" rx="4" fill="#fdbcb4"/>
  <rect x="52" y="52" width="8" height="18" rx="4" fill="#fdbcb4"/>
  
  <!-- Laptop/Computer elements -->
  <rect x="32" y="58" width="16" height="10" rx="1" fill="#333"/>
  <rect x="33" y="59" width="14" height="7" rx="0.5" fill="#4a90e2"/>
  <rect x="34" y="60" width="4" height="1" fill="#fff"/>
  <rect x="34" y="62" width="6" height="1" fill="#fff"/>
  <rect x="34" y="64" width="3" height="1" fill="#fff"/>
</svg>