<svg xmlns="http://www.w3.org/2000/svg" width="100" height="100" viewBox="0 0 100 100" fill="none">
  <!-- Fundo circular -->
  <circle cx="50" cy="50" r="50" fill="#e1e8ed"/>
  
  <!-- Cabeça -->
  <circle cx="50" cy="40" r="25" fill="#f5cba7"/>
  
  <!-- Cabelo -->
  <path d="M30 30 Q50 10 70 30 Q75 40 70 45 Q65 48 60 45 L40 45 Q35 48 30 45 Q25 40 30 30" fill="#34495e"/>
  
  <!-- Olhos -->
  <circle cx="40" cy="35" r="3" fill="#2c3e50"/>
  <circle cx="60" cy="35" r="3" fill="#2c3e50"/>
  
  <!-- Sobrancelhas -->
  <path d="M35 30 Q40 28 45 30" stroke="#2c3e50" stroke-width="1.5" fill="none"/>
  <path d="M55 30 Q60 28 65 30" stroke="#2c3e50" stroke-width="1.5" fill="none"/>
  
  <!-- Nariz -->
  <path d="M50 38 L48 45 L52 45" fill="#e59866"/>
  
  <!-- Boca -->
  <path d="M40 52 Q50 58 60 52" stroke="#c0392b" stroke-width="2" fill="none"/>
  
  <!-- Pescoço -->
  <rect x="45" y="65" width="10" height="10" fill="#f5cba7"/>
  
  <!-- Corpo/Camisa -->
  <path d="M30 100 L45 75 L55 75 L70 100" fill="#3498db"/>
  <path d="M45 75 L40 85 L60 85 L55 75" fill="#2980b9"/>
  
  <!-- Detalhe da camisa (gola) -->
  <path d="M45 75 L50 80 L55 75" stroke="#2980b9" stroke-width="1" fill="none"/>
</svg>