<svg xmlns="http://www.w3.org/2000/svg" width="100" height="100" viewBox="0 0 100 100" fill="none">
  <!-- Fundo circular -->
  <circle cx="50" cy="50" r="50" fill="#e1e8ed"/>
  
  <!-- Cabeça -->
  <circle cx="50" cy="40" r="25" fill="#f5cba7"/>
  
  <!-- Cabelo -->
  <path d="M30 25 Q50 10 70 25 Q75 35 70 40 L70 45 Q65 48 60 45 L40 45 Q35 48 30 45 L30 40 Q25 35 30 25" fill="#7f8c8d"/>
  
  <!-- Barba -->
  <path d="M35 50 Q50 65 65 50 Q60 60 50 62 Q40 60 35 50" fill="#7f8c8d"/>
  
  <!-- Olhos -->
  <circle cx="40" cy="35" r="3" fill="#2c3e50"/>
  <circle cx="60" cy="35" r="3" fill="#2c3e50"/>
  
  <!-- Sobrancelhas -->
  <path d="M35 28 Q40 26 45 28" stroke="#2c3e50" stroke-width="2" fill="none"/>
  <path d="M55 28 Q60 26 65 28" stroke="#2c3e50" stroke-width="2" fill="none"/>
  
  <!-- Nariz -->
  <path d="M50 38 L47 45 L53 45" fill="#e59866"/>
  
  <!-- Boca -->
  <path d="M45 52 L55 52" stroke="#2c3e50" stroke-width="1.5" fill="none"/>
  
  <!-- Óculos -->
  <circle cx="40" cy="35" r="8" stroke="#34495e" stroke-width="1.5" fill="none"/>
  <circle cx="60" cy="35" r="8" stroke="#34495e" stroke-width="1.5" fill="none"/>
  <path d="M48 35 L52 35" stroke="#34495e" stroke-width="1.5" fill="none"/>
  <path d="M32 30 L28 28" stroke="#34495e" stroke-width="1.5" fill="none"/>
  <path d="M68 30 L72 28" stroke="#34495e" stroke-width="1.5" fill="none"/>
  
  <!-- Pescoço -->
  <rect x="45" y="65" width="10" height="10" fill="#f5cba7"/>
  
  <!-- Corpo/Camisa -->
  <path d="M30 100 L45 75 L55 75 L70 100" fill="#27ae60"/>
  
  <!-- Detalhe da camisa (gola) -->
  <path d="M45 75 L50 85 L55 75" fill="#2ecc71"/>
  
  <!-- Gravata -->
  <path d="M50 85 L47 95 L50 100 L53 95 L50 85" fill="#34495e"/>
</svg>