<svg width="80" height="80" viewBox="0 0 80 80" xmlns="http://www.w3.org/2000/svg">
  <!-- Background circle -->
  <circle cx="40" cy="40" r="40" fill="#E91E63"/>
  
  <!-- Person silhouette - Professional woman -->
  <g transform="translate(40, 40)">
    <!-- Head -->
    <circle cx="0" cy="-8" r="12" fill="#8D6E63"/>
    
    <!-- Hair - long professional style -->
    <path d="M -12 -18 Q -8 -22 0 -20 Q 8 -22 12 -18 Q 10 -10 8 -5 Q 4 -8 0 -6 Q -4 -8 -8 -5 Q -10 -10 -12 -18" fill="#5D4037"/>
    
    <!-- Body - professional attire -->
    <rect x="-8" y="4" width="16" height="20" rx="3" fill="#673AB7"/>
    
    <!-- Laptop/work setup -->
    <rect x="-10" y="12" width="20" height="12" rx="1" fill="#37474F"/>
    <rect x="-8" y="14" width="16" height="8" fill="#263238"/>
    
    <!-- Video editing timeline on screen -->
    <rect x="-6" y="16" width="12" height="1" fill="#4CAF50"/>
    <rect x="-6" y="18" width="8" height="1" fill="#FF9800"/>
    <rect x="-6" y="20" width="10" height="1" fill="#2196F3"/>
    
    <!-- Face details -->
    <circle cx="-3" cy="-8" r="1" fill="#FFFFFF"/>
    <circle cx="3" cy="-8" r="1" fill="#FFFFFF"/>
    <path d="M -2 -4 Q 0 -2 2 -4" stroke="#FFFFFF" stroke-width="1" fill="none"/>
    
    <!-- Professional glasses -->
    <circle cx="-3" cy="-8" r="3" fill="none" stroke="#424242" stroke-width="1"/>
    <circle cx="3" cy="-8" r="3" fill="none" stroke="#424242" stroke-width="1"/>
    <line x1="0" y1="-8" x2="0" y2="-6" stroke="#424242" stroke-width="1"/>
  </g>
  
  <!-- Creative elements -->
  <g opacity="0.3">
    <!-- Video/creative icons -->
    <rect x="12" y="12" width="8" height="6" rx="1" fill="#FF5722"/>
    <polygon points="14,15 18,17 14,19" fill="#FFFFFF"/>
    <circle cx="65" cy="30" r="4" fill="#9C27B0"/>
    <rect x="60" y="55" width="8" height="8" rx="1" fill="#00BCD4"/>
  </g>
</svg>