<svg xmlns="http://www.w3.org/2000/svg" viewBox="0 0 200 200" width="200" height="200">
  <!-- Fundo circular -->
  <circle cx="100" cy="100" r="100" fill="#e0e0e0"/>
  
  <!-- Cabeça -->
  <circle cx="100" cy="80" r="40" fill="#f5d0a9"/>
  
  <!-- Cabelo -->
  <path d="M60 80 Q100 20 140 80" fill="#4a3520"/>
  <path d="M60 80 Q70 60 100 60 Q130 60 140 80" fill="#4a3520"/>
  
  <!-- Olhos -->
  <circle cx="85" cy="75" r="5" fill="#333"/>
  <circle cx="115" cy="75" r="5" fill="#333"/>
  
  <!-- Sobrancelhas -->
  <path d="M80 65 Q85 60 90 65" stroke="#333" stroke-width="2" fill="none"/>
  <path d="M110 65 Q115 60 120 65" stroke="#333" stroke-width="2" fill="none"/>
  
  <!-- Nariz -->
  <path d="M100 80 L105 90 L100 90" fill="#e0ac8c"/>
  
  <!-- Boca -->
  <path d="M90 100 Q100 105 110 100" stroke="#333" stroke-width="2" fill="none"/>
  
  <!-- Terno -->
  <path d="M60 120 L60 200 L140 200 L140 120" fill="#2c3e50"/>
  
  <!-- Camisa -->
  <path d="M80 120 L80 170 L120 170 L120 120" fill="#fff"/>
  
  <!-- Gravata -->
  <path d="M95 120 L105 120 L105 130 L100 170 L95 130 Z" fill="#e74c3c"/>
  
  <!-- Pescoço -->
  <path d="M85 110 L115 110 L115 120 L85 120 Z" fill="#f5d0a9"/>
</svg>