<svg xmlns="http://www.w3.org/2000/svg" width="600" height="400" viewBox="0 0 600 400" fill="none">
  <!-- Fundo com gradiente suave -->
  <rect width="600" height="400" fill="#f5f8fa" rx="10" ry="10"/>
  
  <!-- Mesa de trabalho -->
  <rect x="100" y="250" width="400" height="20" rx="5" ry="5" fill="#d1d8e0"/>
  
  <!-- Notebook -->
  <g>
    <!-- Base do notebook -->
    <rect x="200" y="180" width="200" height="10" rx="2" ry="2" fill="#7f8c8d"/>
    <rect x="200" y="190" width="200" height="60" rx="5" ry="5" fill="#34495e"/>
    
    <!-- Tela do notebook -->
    <rect x="210" y="80" width="180" height="100" rx="5" ry="5" fill="#2c3e50"/>
    <rect x="220" y="90" width="160" height="80" rx="2" ry="2" fill="#3498db"/>
    
    <!-- Conteúdo da tela -->
    <rect x="230" y="100" width="140" height="10" rx="2" ry="2" fill="#ecf0f1" opacity="0.7"/>
    <rect x="230" y="120" width="100" height="10" rx="2" ry="2" fill="#ecf0f1" opacity="0.5"/>
    <rect x="230" y="140" width="120" height="10" rx="2" ry="2" fill="#ecf0f1" opacity="0.6"/>
    <rect x="230" y="160" width="80" height="10" rx="2" ry="2" fill="#ecf0f1" opacity="0.4"/>
    
    <!-- Touchpad -->
    <rect x="250" y="210" width="100" height="30" rx="3" ry="3" fill="#95a5a6"/>
  </g>
  
  <!-- Técnico -->
  <g>
    <!-- Cabeça -->
    <circle cx="400" cy="150" r="30" fill="#f39c12"/>
    
    <!-- Rosto -->
    <circle cx="390" cy="145" r="3" fill="#2c3e50"/> <!-- Olho esquerdo -->
    <circle cx="410" cy="145" r="3" fill="#2c3e50"/> <!-- Olho direito -->
    <path d="M395 160 Q400 165 405 160" stroke="#2c3e50" stroke-width="2" fill="none"/> <!-- Sorriso -->
    
    <!-- Corpo -->
    <path d="M400 180 L380 250 L420 250 Z" fill="#3498db"/> <!-- Camisa -->
    
    <!-- Braços -->
    <path d="M400 190 L350 210 L360 220" stroke="#f39c12" stroke-width="10" stroke-linecap="round" fill="none"/> <!-- Braço esquerdo -->
    <path d="M400 190 L440 200 L450 190" stroke="#f39c12" stroke-width="10" stroke-linecap="round" fill="none"/> <!-- Braço direito -->
    
    <!-- Ferramentas -->
    <rect x="350" y="220" width="20" height="5" fill="#e74c3c"/> <!-- Chave de fenda -->
    <circle cx="450" cy="190" r="5" fill="#7f8c8d"/> <!-- Parafuso -->
  </g>
  
  <!-- Elementos decorativos -->
  <g>
    <!-- Ferramentas na mesa -->
    <rect x="150" y="240" width="30" height="10" rx="2" ry="2" fill="#7f8c8d"/> <!-- Chave inglesa -->
    <circle cx="500" y="240" r="10" fill="#e74c3c"/> <!-- Caixa de ferramentas -->
    
    <!-- Ícones flutuantes representando tecnologia -->
    <g opacity="0.2">
      <rect x="120" y="100" width="20" height="20" rx="5" ry="5" fill="#3498db"/> <!-- Ícone 1 -->
      <rect x="480" y="120" width="20" height="20" rx="10" ry="10" fill="#2ecc71"/> <!-- Ícone 2 -->
      <rect x="150" y="150" width="15" height="15" rx="3" ry="3" fill="#9b59b6"/> <!-- Ícone 3 -->
      <rect x="460" y="80" width="25" height="25" rx="5" ry="5" fill="#e74c3c"/> <!-- Ícone 4 -->
    </g>
  </g>
  
  <!-- Elementos de circuito decorativos -->
  <g stroke="#3498db" stroke-width="1" opacity="0.2">
    <path d="M50 50 L100 50 L100 100 L150 100" fill="none"/>
    <path d="M500 50 L450 50 L450 100 L400 100" fill="none"/>
    <path d="M50 350 L100 350 L100 300 L150 300" fill="none"/>
    <path d="M500 350 L450 350 L450 300 L400 300" fill="none"/>
    
    <!-- Pontos de conexão -->
    <circle cx="100" cy="50" r="3" fill="#3498db"/>
    <circle cx="100" cy="100" r="3" fill="#3498db"/>
    <circle cx="450" cy="50" r="3" fill="#3498db"/>
    <circle cx="450" cy="100" r="3" fill="#3498db"/>
    <circle cx="100" cy="350" r="3" fill="#3498db"/>
    <circle cx="100" cy="300" r="3" fill="#3498db"/>
    <circle cx="450" cy="350" r="3" fill="#3498db"/>
    <circle cx="450" cy="300" r="3" fill="#3498db"/>
  </g>
</svg>